Coordinates
version=1
nRows=17
nColumns=40
inDegrees=yes

Units are S.I. units (second, meters, Newtons, ...)
Angles are in degrees.

endheader
time	pelvis_tilt	pelvis_list	pelvis_rotation	pelvis_tx	pelvis_ty	pelvis_tz	hip_flexion_r	hip_adduction_r	hip_rotation_r	knee_angle_r	knee_angle_r_beta	ankle_angle_r	subtalar_angle_r	mtp_angle_r	hip_flexion_l	hip_adduction_l	hip_rotation_l	knee_angle_l	knee_angle_l_beta	ankle_angle_l	subtalar_angle_l	mtp_angle_l	lumbar_extension	lumbar_bending	lumbar_rotation	arm_flex_r	arm_add_r	arm_rot_r	elbow_flex_r	pro_sup_r	wrist_flex_r	wrist_dev_r	arm_flex_l	arm_add_l	arm_rot_l	elbow_flex_l	pro_sup_l	wrist_flex_l	wrist_dev_l
      0.00000000	     -2.19562782	     -2.11053360	     13.35367222	     -1.49741451	      0.90294755	     -1.44227368	     26.96209584	     -2.11197060	    -18.20429117	    -40.40246902	     -0.70515611	      5.14470205	    -15.65336592	     19.01232150	      6.80773432	      6.11547772	     15.60802930	    -25.46660962	     -0.44447619	     10.90318731	     -0.83358434	     -3.35630233	     -5.02401016	     -1.51887966	     -7.56135939	     -4.72432756	     -7.59538685	    -14.48631145	     21.91515525	     89.95437384	      0.00000000	      0.00000000	      5.85200804	     16.00602018	     22.02680189	     46.88115258	     89.95437384	      0.00000000	      0.00000000
      0.01000000	     -2.58267661	     -1.81665583	     13.24827121	     -1.49023402	      0.90185032	     -1.44389037	     27.63207428	     -2.65021179	    -18.58616469	    -38.10300349	     -0.66502287	      5.35831906	    -15.38351969	     18.91248865	      6.55937413	      5.70462624	     15.82389036	    -25.42909630	     -0.44382146	     11.12062275	     -0.80814780	     -3.35756702	     -4.76044255	     -1.84362961	     -7.70775230	     -5.17515867	     -7.61423252	    -14.60367575	     21.87284494	     89.95437384	      0.00000000	      0.00000000	      6.24345292	     16.18671518	     21.98979967	     47.67727286	     89.95437384	      0.00000000	      0.00000000
      0.02000000	     -2.29908405	     -1.98124487	     13.35121876	     -1.48260379	      0.90176081	     -1.44512143	     27.30989898	     -2.37738236	    -18.92699240	    -35.13895759	     -0.61329051	      5.36133594	    -15.01300759	     19.01133837	      5.66881380	      5.96469475	     15.81972881	    -25.24913488	     -0.44068054	     11.37031860	     -0.64677715	     -3.40208683	     -5.17221508	     -1.53388898	     -8.06258613	     -5.33913718	     -7.53023857	    -15.24597349	     21.67249395	     89.95437384	      0.00000000	      0.00000000	      6.54123983	     16.37224645	     22.08458627	     48.74254372	     89.95437384	      0.00000000	      0.00000000
      0.03000000	     -2.34025743	     -1.89493307	     13.33829915	     -1.47492397	      0.90114100	     -1.44629242	     27.41449805	     -2.52138078	    -19.38155036	    -32.50264599	     -0.56727819	      5.45255687	    -14.50272444	     18.93125294	      5.04127687	      5.92683901	     15.88902905	    -25.12995574	     -0.43860047	     11.49670124	     -0.89232661	     -3.45169784	     -5.23394256	     -1.57273753	     -8.27654497	     -5.62188202	     -7.47075117	    -15.61781220	     21.51285934	     89.95437384	      0.00000000	      0.00000000	      6.84810112	     16.56890577	     21.99939593	     49.60262321	     89.95437384	      0.00000000	      0.00000000
      0.04000000	     -2.75020070	     -1.60082025	     13.35790781	     -1.46772341	      0.89987463	     -1.44781621	     28.08137705	     -3.09990662	    -19.89935886	    -30.32747633	     -0.52931432	      5.73981046	    -14.11220046	     18.78942687	      4.84829034	      5.52845884	     16.13536126	    -25.08456040	     -0.43780817	     11.66060392	     -0.90012713	     -3.46170912	     -4.95862190	     -1.88238334	     -8.46848870	     -6.02596499	     -7.48113707	    -15.70966868	     21.48706659	     89.95437384	      0.00000000	      0.00000000	      7.23481523	     16.68955855	     21.93799914	     50.35080447	     89.95437384	      0.00000000	      0.00000000
      0.05000000	     -2.52832689	     -1.80017619	     13.60762543	     -1.45997858	      0.89956815	     -1.44899011	     27.70869904	     -2.89628642	    -20.50328419	    -27.42751695	     -0.47870048	      5.91577917	    -12.72479166	     18.43775332	      4.10524836	      5.85406798	     15.90599377	    -25.05269353	     -0.43725199	     11.81392137	     -0.97635387	     -3.51656874	     -5.28513724	     -1.51140764	     -8.91997026	     -6.12931477	     -7.39745571	    -16.32037829	     21.23296627	     89.95437384	      0.00000000	      0.00000000	      7.51082097	     16.79796133	     21.97790584	     51.24456949	     89.95437384	      0.00000000	      0.00000000
      0.06000000	     -2.57667535	     -1.78181053	     13.64922633	     -1.45194689	      0.89877043	     -1.44986955	     27.78696976	     -2.96343889	    -21.01029516	    -25.10695869	     -0.43819909	      6.27777862	    -11.24380687	     17.69230087	      3.57191613	      5.97288055	     16.29510510	    -25.06914647	     -0.43753915	     11.87022770	     -1.29816182	     -3.62460571	     -5.27985592	     -1.46666671	     -9.09271239	     -6.44761983	     -7.32725793	    -16.72274341	     21.16187421	     89.95437384	      0.00000000	      0.00000000	      7.79530974	     16.92048881	     21.92655465	     51.95441619	     89.95437384	      0.00000000	      0.00000000
      0.07000000	     -3.00164817	     -1.57585530	     13.56252638	     -1.44397947	      0.89738491	     -1.45068470	     28.44889830	     -3.34935772	    -21.48161234	    -23.35801622	     -0.40767429	      6.52031522	    -10.76243117	     17.52273733	      3.34538386	      5.71947530	     16.51842356	    -25.01218050	     -0.43654490	     12.01576739	     -1.33209948	     -3.64004329	     -4.88198315	     -1.70597708	     -9.12063683	     -6.79190959	     -7.30706699	    -16.81284194	     20.99306179	     89.95437384	      0.00000000	      0.00000000	      8.07801168	     16.98030596	     21.87773244	     52.51955132	     89.95437384	      0.00000000	      0.00000000
      0.08000000	     -3.33933678	     -1.66272476	     13.66426725	     -1.43631166	      0.89619501	     -1.45135919	     28.76044831	     -3.26705036	    -21.28230874	    -21.09954333	     -0.36825650	      6.52380263	     -8.98905068	     17.04601176	      3.26315916	      5.81547925	     16.33662170	    -25.14589129	     -0.43887860	     12.01029391	     -1.38363068	     -3.65223780	     -4.59688830	     -1.59095057	     -9.41833867	     -7.00203312	     -7.25254037	    -17.16932937	     20.84215404	     89.95437384	      0.00000000	      0.00000000	      8.26903698	     17.08096686	     21.85920559	     53.14878176	     89.95437384	      0.00000000	      0.00000000
      0.09000000	     -3.05184602	     -1.87785984	     13.72675870	     -1.42759612	      0.89576031	     -1.45196385	     28.52647675	     -3.28299358	    -22.92537429	    -19.61527763	     -0.34235118	      6.85734295	     -5.37800905	     13.86903476	      2.48271930	      6.43990476	     17.06858143	    -25.35625294	     -0.44255010	     11.91485473	     -2.32288474	     -4.03723165	     -4.85401377	     -1.17169258	     -9.50082299	     -7.12667599	     -7.20762759	    -17.85769479	     20.53443942	     89.95437384	      0.00000000	      0.00000000	      8.54903722	     16.98146576	     21.95673137	     53.68538252	     89.95437384	      0.00000000	      0.00000000
      0.10000000	     -3.33146108	     -1.76011260	     13.72113266	     -1.41950190	      0.89453342	     -1.45262752	     29.14635702	     -3.56694871	    -23.08717334	    -18.81597634	     -0.32840074	      6.92189637	     -5.14600191	     13.69507513	      2.20720448	      6.35061242	     17.12889786	    -25.43621375	     -0.44394568	     11.95426823	     -2.24937754	     -4.02059078	     -4.63856852	     -1.23320401	     -9.48481698	     -7.41132986	     -7.20348878	    -17.87262978	     20.45418849	     89.95437384	      0.00000000	      0.00000000	      8.88708791	     16.92399421	     21.91656536	     54.11917849	     89.95437384	      0.00000000	      0.00000000
      0.11000000	     -3.19598388	     -2.01353123	     13.83795950	     -1.41036748	      0.89389783	     -1.45329607	     28.77785385	     -3.33821012	    -23.71789657	    -17.17889398	     -0.29982826	      6.43512458	     -2.45986704	     11.25601427	      1.60111407	      6.84037793	     17.09324933	    -25.66835167	     -0.44799725	     11.95046358	     -2.41228621	     -4.32305667	     -4.62608171	     -0.76675634	     -9.77171294	     -7.45548364	     -7.18125736	    -18.58107275	     20.10124246	     89.95437384	      0.00000000	      0.00000000	      8.87723769	     16.83696278	     22.12999739	     54.55678125	     89.95437384	      0.00000000	      0.00000000
      0.12000000	     -3.43230486	     -1.87498049	     13.83220417	     -1.40162023	      0.89268415	     -1.45393142	     29.21390643	     -3.59324955	    -23.62771597	    -16.83363559	     -0.29380237	      6.39931346	     -2.29902450	     11.06480719	      1.28584202	      6.76600573	     17.06591144	    -25.85909535	     -0.45132636	     11.89696935	     -2.33024497	     -4.29010689	     -4.35301910	     -0.82526316	     -9.77913225	     -7.77088145	     -7.21820278	    -18.55115006	     19.97082535	     89.95437384	      0.00000000	      0.00000000	      9.00637315	     16.72217259	     22.15519962	     54.92043097	     89.95437384	      0.00000000	      0.00000000
      0.13000000	     -3.46901970	     -1.83673001	     13.85166467	     -1.39238271	      0.89182371	     -1.45428017	     29.15460458	     -3.56283677	    -23.23620264	    -16.18981696	     -0.28256561	      6.23682931	     -1.45268171	     10.38272038	      0.78789221	      6.91667064	     17.01958033	    -26.08848676	     -0.45532999	     11.76891447	     -2.28602224	     -4.35088110	     -4.24124098	     -0.74548485	    -10.02863276	     -7.69719256	     -7.20409524	    -18.78655583	     19.40656433	     89.95437384	      0.00000000	      0.00000000	      8.84340053	     16.59065143	     22.61784340	     55.46107729	     89.95437384	      0.00000000	      0.00000000
      0.14000000	     -3.61004200	     -1.72363583	     13.90983011	     -1.38297421	      0.89072041	     -1.45475880	     29.40829608	     -3.76391314	    -22.88089333	    -16.44798205	     -0.28707144	      6.12639228	     -1.41595393	     10.15826440	      0.43408346	      6.93549056	     16.77308222	    -26.41871652	     -0.46109359	     11.53360280	     -2.20681092	     -4.28392780	     -4.00851530	     -0.75130889	    -10.05138671	     -8.08141251	     -7.22685990	    -18.72851670	     19.45045206	     89.95437384	      0.00000000	      0.00000000	      8.86365110	     16.47446859	     22.58439020	     55.72754781	     89.95437384	      0.00000000	      0.00000000
      0.15000000	     -3.37301143	     -1.63538848	     13.95294246	     -1.37288045	      0.89023382	     -1.45511775	     29.08429051	     -3.75888606	    -22.45231210	    -16.75451000	     -0.29242136	      6.47099414	     -1.67184122	      9.79578576	     -0.49704931	      7.08878799	     16.63933865	    -26.47367472	     -0.46205279	     11.31076839	     -2.35181559	     -4.31290755	     -4.11627718	     -0.64272982	    -10.35422275	     -7.82819392	     -7.26259105	    -18.85196762	     18.60971058	     89.95437384	      0.00000000	      0.00000000	      8.47503952	     16.32249182	     23.07236934	     56.33778836	     89.95437384	      0.00000000	      0.00000000
      0.16000000	     -3.53632338	     -1.49002224	     14.02944182	     -1.36287205	      0.88906241	     -1.45539843	     29.13488199	     -3.92794508	    -22.03753132	    -17.20140335	     -0.30022112	      6.27243803	     -1.68368767	      9.58630356	     -0.82881874	      7.10105187	     16.33929341	    -26.85563675	     -0.46871928	     11.00616656	     -2.25506051	     -4.23079563	     -3.78774032	     -0.70358876	    -10.35440803	     -8.27702351	     -7.24618559	    -18.78646186	     18.73103734	     89.95437384	      0.00000000	      0.00000000	      8.36374268	     16.18777895	     23.01877330	     56.53070503	     89.95437384	      0.00000000	      0.00000000
